<svg width="188" height="68" xmlns="http://www.w3.org/2000/svg">

 <title>Enter_1</title>
 <g>
  <title>Layer 1</title>
  <g data-name="Слой 2" id="Слой_2">
   <g id="Строка">
    <rect id="svg_1" fill="#fff" height="68" width="188" class="cls-1"/>
    <path id="svg_2" opacity="0.8" fill="#1b1464" d="m25.74,49.29a2.16,2.16 0 0 1 -0.6,-1.6l0,-26a2.06,2.06 0 0 1 2.2,-2.2l16.6,0a3.76,3.76 0 0 1 0.3,0.68a2.73,2.73 0 0 1 0.15,0.92a2.13,2.13 0 0 1 -0.4,1.35a1.4,1.4 0 0 1 -1.15,0.5l-13.65,0l0,9.65l13.2,0a4,4 0 0 1 0.3,0.67a2.83,2.83 0 0 1 0.15,0.93a2,2 0 0 1 -0.4,1.32a1.42,1.42 0 0 1 -1.15,0.48l-12.1,0l0,10.5l15,0a4,4 0 0 1 0.3,0.65a2.71,2.71 0 0 1 0.15,1a2,2 0 0 1 -0.4,1.33a1.44,1.44 0 0 1 -1.15,0.47l-15.75,0a2.16,2.16 0 0 1 -1.6,-0.65z" class="cls-2"/>
    <path id="svg_3" opacity="0.8" fill="#1b1464" d="m71.26,30.74a6.41,6.41 0 0 0 -4.26,-1.3a11.61,11.61 0 0 0 -3.55,0.5a12.92,12.92 0 0 0 -2.65,1.15l0,18.7a5.62,5.62 0 0 1 -0.75,0.22a4.25,4.25 0 0 1 -1.1,0.13c-1.44,0 -2.15,-0.6 -2.15,-1.8l0,-17.05a3.24,3.24 0 0 1 0.42,-1.73a4.45,4.45 0 0 1 1.48,-1.32a14.65,14.65 0 0 1 3.45,-1.45a16.84,16.84 0 0 1 4.85,-0.65a11.34,11.34 0 0 1 7.17,2.05q2.63,2.05 2.63,6.45l0,15.15a5.44,5.44 0 0 1 -0.78001,0.22a4.29,4.29 0 0 1 -1.07,0.13c-1.43999,0 -2.14999,-0.6 -2.14999,-1.8l0,-13.5a5,5 0 0 0 -1.54,-4.1z" class="cls-2"/>
    <path id="svg_4" opacity="0.8" fill="#1b1464" d="m98.24,50.54a9.59,9.59 0 0 1 -5.68,-1.54q-2.18,-1.55 -2.18,-5.15l0,-23.76a6.77,6.77 0 0 1 0.78001,-0.23a5,5 0 0 1 1.13,-0.12c1.39,0 2.09,0.6 2.09,1.8l0,5.75l8.2,0a3.3,3.3 0 0 1 0.3,0.67a2.6,2.6 0 0 1 0.16,0.93c0,1.13 -0.5,1.7 -1.5,1.7l-7.16,0l0,13a3.3,3.3 0 0 0 1.13,2.83a5.36,5.36 0 0 0 3.17,0.82a7,7 0 0 0 1.9,-0.3a7.48,7.48 0 0 0 1.75,-0.7a2.91,2.91 0 0 1 0.55,0.75a2.09,2.09 0 0 1 0.25,1a2.06,2.06 0 0 1 -1.3,1.8a7.58,7.58 0 0 1 -3.59,0.75z" class="cls-2"/>
    <path id="svg_5" opacity="0.8" fill="#1b1464" d="m117,40.69q1.35,6.56 8.6,6.55a9.82,9.82 0 0 0 3.8,-0.7a11.09,11.09 0 0 0 2.70001,-1.5a2.13,2.13 0 0 1 1.2,1.9a1.91,1.91 0 0 1 -0.62001,1.35a5.62,5.62 0 0 1 -1.7,1.15a11.85,11.85 0 0 1 -2.5,0.8a15,15 0 0 1 -3.07999,0.3q-5.79,0 -9.17,-3.15t-3.38,-9.2a14.59,14.59 0 0 1 0.83,-5.08a10.91,10.91 0 0 1 2.3,-3.77a10,10 0 0 1 3.55,-2.34a12,12 0 0 1 4.45,-0.82a11.18,11.18 0 0 1 4.15,0.75a9.61,9.61 0 0 1 3.28,2.07a9.91,9.91 0 0 1 2.14999,3.25a10.66,10.66 0 0 1 0.77,4.13a2.06,2.06 0 0 1 -0.5,1.57a2.34,2.34 0 0 1 -1.40001,0.58l-15.42999,2.16zm6.9,-11.3a6.67,6.67 0 0 0 -5.05,2.12a8.93,8.93 0 0 0 -2.1,6.08l13.75,-1.9a7.27,7.27 0 0 0 -1.92,-4.52a6.11,6.11 0 0 0 -4.65,-1.78l-0.03,0z" class="cls-2"/>
    <path id="svg_6" opacity="0.8" fill="#1b1464" d="m150.13,49.79a4.83,4.83 0 0 1 -0.75,0.22a4.18,4.18 0 0 1 -1.09001,0.13q-2.15999,0 -2.15999,-1.8l0,-17a3.44,3.44 0 0 1 0.42999,-1.83a4.59,4.59 0 0 1 1.44,-1.27a13,13 0 0 1 3.53,-1.48a18.87,18.87 0 0 1 5,-0.62c2.66,0 4,0.67 4,2a2.73,2.73 0 0 1 -0.16,0.92a2.06,2.06 0 0 1 -0.39999,0.73c-0.33,-0.07 -0.75999,-0.13 -1.3,-0.2a12.17,12.17 0 0 0 -1.59999,-0.1a15.73,15.73 0 0 0 -4,0.47a13.1,13.1 0 0 0 -2.91,1.13l-0.03,18.7z" class="cls-2"/>
   </g>
  </g>
 </g>
</svg>